<?xml version="1.0" encoding="utf-8"?>
<!-- Generator: Adobe Illustrator 16.0.4, SVG Export Plug-In . SVG Version: 6.00 Build 0)  -->
<!DOCTYPE svg PUBLIC "-//W3C//DTD SVG 1.1//EN" "http://www.w3.org/Graphics/SVG/1.1/DTD/svg11.dtd">
<svg version="1.1" id="Ebene_1" xmlns="http://www.w3.org/2000/svg" xmlns:xlink="http://www.w3.org/1999/xlink" x="0px" y="0px"
	 width="16px" height="16px" viewBox="0 0 16 16" enable-background="new 0 0 16 16" xml:space="preserve">
<g>
	<path fill-rule="evenodd" clip-rule="evenodd" fill="#181716" d="M6.452,1.967c-0.276,0-0.5,0.223-0.5,0.5V5.26L0.84,0.146
		c-0.196-0.195-0.512-0.195-0.708,0c-0.195,0.195-0.195,0.512,0.001,0.707l5.112,5.113H2.452c-0.276,0-0.5,0.224-0.5,0.5
		c0,0.275,0.224,0.5,0.5,0.5h4c0.276,0,0.5-0.225,0.5-0.5v-4C6.952,2.189,6.729,1.967,6.452,1.967z"/>
	<path fill-rule="evenodd" clip-rule="evenodd" fill="#181716" d="M9.546,6.967C9.547,6.967,9.547,6.967,9.546,6.967h4.001
		c0.276,0,0.5-0.223,0.5-0.5c0-0.275-0.224-0.5-0.5-0.5h-2.794l5.113-5.111c0.195-0.197,0.195-0.512,0-0.709
		c-0.195-0.195-0.512-0.195-0.707,0.002l-5.112,5.11V2.467c0-0.275-0.225-0.5-0.501-0.5c-0.275,0-0.5,0.225-0.5,0.5v4
		C9.046,6.744,9.271,6.967,9.546,6.967z"/>
	<path fill-rule="evenodd" clip-rule="evenodd" fill="#181716" d="M15.868,15.146l-5.111-5.113h2.791
		c0.277-0.001,0.5-0.225,0.501-0.501c-0.001-0.275-0.224-0.5-0.5-0.5l-4,0.001c-0.277-0.001-0.5,0.224-0.5,0.5v3.999
		c0,0.277,0.224,0.5,0.5,0.5s0.5-0.223,0.5-0.5v-2.793l5.112,5.113c0.195,0.195,0.512,0.195,0.707,0S16.063,15.34,15.868,15.146z"/>
	<path fill-rule="evenodd" clip-rule="evenodd" fill="#181716" d="M6.452,9.034C6.451,9.034,6.451,9.034,6.452,9.034H2.451
		c-0.276,0-0.5,0.224-0.5,0.5s0.224,0.5,0.5,0.5h2.794l-5.113,5.112c-0.195,0.196-0.195,0.512,0,0.708
		c0.195,0.195,0.512,0.195,0.707-0.001l5.112-5.111v2.792c0,0.276,0.225,0.5,0.501,0.5c0.275,0,0.5-0.224,0.5-0.5v-4
		C6.952,9.258,6.728,9.034,6.452,9.034z"/>
</g>
</svg>
